<svg xmlns="http://www.w3.org/2000/svg" xmlns:xlink="http://www.w3.org/1999/xlink" version="1.1" width="256" height="256" viewBox="0 0 256 256" xml:space="preserve">
<desc>Created with Fabric.js 1.7.22</desc>
<defs>
</defs>
<g transform="translate(128 128) scale(0.72 0.72)" style="">
	<g style="stroke: none; stroke-width: 0; stroke-dasharray: none; stroke-linecap: butt; stroke-linejoin: miter; stroke-miterlimit: 10; fill: none; fill-rule: nonzero; opacity: 1;" transform="translate(-175.05 -175.05000000000004) scale(3.89 3.89)" >
	<polygon points="74.1,13.41 61.33,13.41 61.33,1.71 63.33,1.71 63.33,11.41 74.1,11.41 " style="stroke: none; stroke-width: 1; stroke-dasharray: none; stroke-linecap: butt; stroke-linejoin: miter; stroke-miterlimit: 10; fill: rgb(0,0,0); fill-rule: nonzero; opacity: 1;" transform="  matrix(1 0 0 1 0 0) "/>
	<path d="M 48.894 20.534 c 6.285 0.966 11.113 6.41 11.113 12.961 c 0 7.231 -5.883 13.113 -13.113 13.113 c -6.551 0 -11.996 -4.828 -12.961 -11.113 h 12.961 h 2 v -2 V 20.534 M 46.894 18.382 v 15.114 H 31.78 c 0 8.347 6.767 15.113 15.114 15.113 s 15.113 -6.767 15.113 -15.113 C 62.007 25.149 55.241 18.382 46.894 18.382 L 46.894 18.382 z" style="stroke: none; stroke-width: 1; stroke-dasharray: none; stroke-linecap: butt; stroke-linejoin: miter; stroke-miterlimit: 10; fill: rgb(0,0,0); fill-rule: nonzero; opacity: 1;" transform=" matrix(1 0 0 1 0 0) " stroke-linecap="round" />
	<path d="M 41.106 17.306 v 10.961 H 30.145 C 31.01 22.634 35.473 18.171 41.106 17.306 M 43.106 15.153 c -8.347 0 -15.114 6.767 -15.114 15.113 h 15.114 V 15.153 L 43.106 15.153 z" style="stroke: none; stroke-width: 1; stroke-dasharray: none; stroke-linecap: butt; stroke-linejoin: miter; stroke-miterlimit: 10; fill: rgb(0,0,0); fill-rule: nonzero; opacity: 1;" transform=" matrix(1 0 0 1 0 0) " stroke-linecap="round" />
	<path d="M 83.803 27.726 c -3.422 0 -6.197 2.774 -6.197 6.197 c 0 1.255 0.376 2.421 1.017 3.396 L 62.616 54.216 c 0 0 0 0.001 0 0.001 L 50.474 67.033 c -0.973 -0.637 -2.135 -1.01 -3.385 -1.01 c -1.38 0 -2.65 0.457 -3.68 1.219 l -6.916 -6.611 l 0 0 c 0.58 -0.943 0.92 -2.049 0.92 -3.237 c 0 -3.422 -2.774 -6.197 -6.197 -6.197 c -3.422 0 -6.197 2.774 -6.197 6.197 c 0 1.299 0.401 2.503 1.083 3.498 l 0 0 L 9.41 78.512 c -0.938 -0.571 -2.035 -0.906 -3.214 -0.906 C 2.774 77.606 0 80.381 0 83.803 C 0 87.226 2.774 90 6.197 90 c 3.422 0 6.197 -2.774 6.197 -6.197 c 0 -1.298 -0.401 -2.502 -1.083 -3.498 l 16.692 -17.62 c 0.938 0.571 2.035 0.906 3.214 0.906 c 1.289 0 2.485 -0.394 3.476 -1.067 l 6.987 6.679 c -0.499 0.893 -0.787 1.922 -0.787 3.018 c 0 3.422 2.774 6.197 6.197 6.197 s 6.197 -2.774 6.197 -6.197 c 0 -1.226 -0.361 -2.366 -0.975 -3.328 L 68.693 51.6 c 0 0 0 0 0 -0.001 l 11.793 -12.448 c 0.96 0.61 2.096 0.969 3.317 0.969 c 3.422 0 6.197 -2.774 6.197 -6.197 C 90 30.5 87.226 27.726 83.803 27.726 z M 6.197 87.388 c -1.977 0 -3.585 -1.608 -3.585 -3.585 c 0 -1.977 1.608 -3.585 3.585 -3.585 s 3.585 1.608 3.585 3.585 C 9.782 85.78 8.174 87.388 6.197 87.388 z M 31.216 60.979 c -1.977 0 -3.585 -1.608 -3.585 -3.585 c 0 -1.977 1.608 -3.585 3.585 -3.585 c 1.977 0 3.585 1.608 3.585 3.585 C 34.801 59.371 33.193 60.979 31.216 60.979 z M 47.089 75.805 c -1.977 0 -3.585 -1.608 -3.585 -3.585 c 0 -1.977 1.608 -3.585 3.585 -3.585 s 3.585 1.608 3.585 3.585 C 50.674 74.197 49.066 75.805 47.089 75.805 z M 83.803 37.508 c -1.977 0 -3.585 -1.608 -3.585 -3.585 c 0 -1.977 1.608 -3.585 3.585 -3.585 s 3.585 1.608 3.585 3.585 C 87.388 35.9 85.78 37.508 83.803 37.508 z" style="stroke: none; stroke-width: 1; stroke-dasharray: none; stroke-linecap: butt; stroke-linejoin: miter; stroke-miterlimit: 10; fill: rgb(0,0,0); fill-rule: nonzero; opacity: 1;" transform=" matrix(1 0 0 1 0 0) " stroke-linecap="round" />
	<path d="M 73.672 48.526 v 37.671 c 0 0.995 -0.809 1.804 -1.804 1.804 H 18.132 c -0.995 0 -1.804 -0.809 -1.804 -1.804 v -9.007 l -2 2.111 v 6.896 c 0 2.101 1.703 3.804 3.804 3.804 h 53.736 c 2.101 0 3.804 -1.703 3.804 -3.804 V 46.414 L 73.672 48.526 z" style="stroke: none; stroke-width: 1; stroke-dasharray: none; stroke-linecap: butt; stroke-linejoin: miter; stroke-miterlimit: 10; fill: rgb(0,0,0); fill-rule: nonzero; opacity: 1;" transform=" matrix(1 0 0 1 0 0) " stroke-linecap="round" />
	<path d="M 16.328 69.029 V 3.804 C 16.328 2.809 17.137 2 18.132 2 h 42.699 c 0.457 0 0.894 0.172 1.228 0.483 l 11.037 10.266 c 0.366 0.34 0.575 0.821 0.575 1.321 v 26.295 l 2 -2.111 V 14.069 c 0 -1.057 -0.439 -2.066 -1.213 -2.785 L 63.422 1.018 C 62.718 0.364 61.792 0 60.831 0 H 18.132 c -2.101 0 -3.804 1.703 -3.804 3.804 V 71.14 L 16.328 69.029 z" style="stroke: none; stroke-width: 1; stroke-dasharray: none; stroke-linecap: butt; stroke-linejoin: miter; stroke-miterlimit: 10; fill: rgb(0,0,0); fill-rule: nonzero; opacity: 1;" transform=" matrix(1 0 0 1 0 0) " stroke-linecap="round" />
</g>
</g>
</svg>